<svg width="32" height="32" viewBox="0 0 32 32" fill="none" xmlns="http://www.w3.org/2000/svg">
<style type="text/css">
	.st0{fill:none;stroke:#986DFF;stroke-width:1.5;stroke-linecap:round;stroke-linejoin:round;stroke-miterlimit:66.6667;}
</style>
<path class="st0" d="M0.7,4.4C0.7,4,1,3.7,1.4,3.7c0.2,0,0.3,0.1,0.5,0.2L14,14c1.2,1,2.9,1,4.1,0L30.2,3.9c0.3-0.2,0.7-0.2,1,0.1
	c0.1,0.1,0.2,0.3,0.2,0.5v20.7c0,1.8-1.4,3.2-3.2,3.2l0,0H3.8c-1.8,0-3.2-1.4-3.2-3.2l0,0V4.4z"/>
<path class="st0" d="M20.1,12.2L20.1,12.2L14,17.6c-1,0.9-2.6,0.9-3.7,0.1L0.7,9.6"/>
<line class="st0" x1="24.8" y1="8.3" x2="24.8" y2="28.3"/>
</svg>
