<svg width="32" height="32" viewBox="0 0 32 32" fill="none" xmlns="http://www.w3.org/2000/svg">
	 viewBox="0 0 32 32" style="enable-background:new 0 0 32 32;" xml:space="preserve">
<style type="text/css">
	.st0{fill:none;stroke:#986DFF;stroke-width:1.5892;stroke-linejoin:round;stroke-miterlimit:16.6667;}
</style>
<path class="st0" d="M2.9,14.4c0,0,13.2-5.4,17.7-7.3c1.8-0.8,7.7-3.2,7.7-3.2s2.7-1.1,2.5,1.5c-0.1,1.1-0.7,4.8-1.3,8.8
	c-0.9,5.7-1.9,11.9-1.9,11.9s-0.2,1.7-1.4,2c-1.3,0.3-3.4-1.1-3.8-1.4c-0.3-0.2-5.7-3.6-7.7-5.3c-0.5-0.5-1.1-1.4,0.1-2.4
	c2.7-2.5,6-5.6,8-7.6c0.9-0.9,1.8-3-2-0.5c-5.4,3.7-10.7,7.2-10.7,7.2S8.9,19,6.6,18.4c-2.3-0.7-4.9-1.6-4.9-1.6S-0.2,15.6,2.9,14.4
	L2.9,14.4z"/>
</svg>
